# xmcd
# 
# Track frame offsets:
#     150
#     19209
#     35675
#     61101
#     75582
#     98456
#     110492
#     134304
#     164072
#     173762
#     198043
# 
# Disc length: 2813
# 
# Revision: 0
# Processed by: cddbd v1.5.2PL0 Copyright (c) Steve Scherf et al.
# Submitted via: fre:ac v1.0.31
# 
DISCID=850afb0b
DTITLE=Summer Thunder - Chinese Music Ensemble
DYEAR=2010
DGENRE=Ethnic
TTITLE0=Su Di Man Bu - Strolling the Causeways of West Lake
TTITLE1=Haun Le Ge - Song of Happiness
TTITLE2=Yu Fu Rong - The Jade Hibiscus
TTITLE3=Shan Hu Song - In Prase of Coral
TTITLE4=Chen Hui Qu - Spring Dawn Music
TTITLE5=Zi Zhu Diao - Purple Bamboo Melody
TTITLE6=Yi Zhi Mei - A Flowering Branch of Plum Tree
TTITLE7=Xing Jie
TTITLE8=Strolling Along the Street, Tea House
TTITLE9=Gan Hui - Going to the Temple Festival
TTITLE10=Cai Yun Zhui Yue - Colorful clouds Chasing the Moon
EXTD=www.summerthundermusic.com
EXTT0=
EXTT1=
EXTT2=
EXTT3=
EXTT4=
EXTT5=
EXTT6=
EXTT7=
EXTT8=
EXTT9=
EXTT10=
PLAYORDER=
